<?xml version="1.0" encoding="utf-8"?>
<!-- Generator: Adobe Illustrator 18.1.0, SVG Export Plug-In . SVG Version: 6.00 Build 0)  -->
<svg version="1.1" id="Calque_1" xmlns="http://www.w3.org/2000/svg" xmlns:xlink="http://www.w3.org/1999/xlink" x="0px" y="0px"
	 viewBox="0 150 1920 300" enable-background="new 0 150 1920 300" xml:space="preserve">
<rect y="150" fill="#373A3C" width="1920" height="300"/>
<polygon fill="#B63032" points="1920,450 720,450 1320,300 1920,150 "/>
<polygon fill="#E23337" points="1200,451.2 0,451.2 0,151.2 600,301.2 "/>
<rect x="735.1" y="456.3" fill="none" width="725.9" height="174.7"/>
<rect x="867.6" y="81.3" fill="none" width="207.9" height="174.7"/>
<rect x="827.4" y="335.3" fill="none" width="302.9" height="174.7"/>
<g>
	<polygon fill="#E23337" points="960,345.3 960,195.3 890.3,220.3 900.8,312 	"/>
	<polygon fill="#B63032" points="960,345.3 960,195.3 1029.7,220.3 1019.3,312 	"/>
	<g>
		<polygon fill="none" points="974.6,274.3 961.1,245.9 961.1,245.9 960,243.6 959,245.8 959,245.8 945.4,274.3 960,274.3 		"/>
		<path fill="#FFFFFF" d="M913.7,309.7h16.2l9.7-21.7h40.8l9.7,21.7h16.2L960,213L913.7,309.7z M974.6,274.3h-29.2l14.6-30.7
			L974.6,274.3z"/>
	</g>
</g>
</svg>
