<?xml version="1.0" encoding="utf-8"?>
<!-- Generator: Adobe Illustrator 18.1.0, SVG Export Plug-In . SVG Version: 6.00 Build 0)  -->
<svg version="1.1" id="Calque_1" xmlns="http://www.w3.org/2000/svg" xmlns:xlink="http://www.w3.org/1999/xlink" x="0px" y="0px"
	 viewBox="0 150 1920 300" enable-background="new 0 150 1920 300" xml:space="preserve">
<rect y="150" fill="#373A3C" width="1920" height="300"/>
<polygon fill="#573E7D" points="1920,450 720,450 1320,300 1920,150 "/>
<polygon fill="#8D75BA" points="1200,451.2 0,451.2 0,151.2 600,301.2 "/>
<rect x="735.1" y="456.3" fill="none" width="725.9" height="174.7"/>
<g>
	<path fill="#573E7D" d="M885,319.1c0,10.7,8.6,19.4,19.4,19.4h111.3c10.7,0,19.4-8.6,19.4-19.4V207.8c0-10.7-8.6-19.4-19.4-19.4
		H904.4c-10.7,0-19.4,8.6-19.4,19.4V319.1L885,319.1z"/>
	<path fill="#FFFFFF" d="M947.2,254.8v-21.2h18.7c1.8,0,3.5,0.1,5.1,0.5s3.1,0.8,4.4,1.6c1.3,0.8,2.3,1.8,3.1,3.2s1.2,3.1,1.2,5.2
		c0,3.8-1.2,6.6-3.4,8.2c-2.3,1.7-5.2,2.5-8.8,2.5L947.2,254.8L947.2,254.8z M927.3,218.1v90.8h44c4.1,0,8.1-0.5,11.9-1.6
		c3.8-1,7.3-2.6,10.3-4.7c3-2.1,5.4-4.9,7.2-8.2c1.8-3.4,2.7-7.3,2.7-11.9c0-5.7-1.4-10.5-4.2-14.5c-2.7-4-6.9-6.8-12.5-8.4
		c4.1-1.9,7.1-4.5,9.2-7.5c2.1-3.1,3.1-6.9,3.1-11.4c0-4.2-0.7-7.8-2.1-10.7c-1.4-2.9-3.4-5.2-5.9-6.9c-2.5-1.8-5.6-3-9.2-3.8
		s-7.5-1.2-11.8-1.2L927.3,218.1L927.3,218.1z M947.2,293.3v-24.9H969c4.4,0,7.8,1,10.5,3c2.6,2,4,5.3,4,10c0,2.4-0.4,4.4-1.2,5.8
		c-0.8,1.5-1.9,2.7-3.2,3.6c-1.4,0.9-2.9,1.6-4.7,1.9c-1.8,0.4-3.6,0.6-5.6,0.6H947.2L947.2,293.3z"/>
</g>
<rect x="74.1" y="-176.7" fill="none" width="725.9" height="174.7"/>
</svg>
