<?xml version="1.0" encoding="utf-8"?>
<!-- Generator: Adobe Illustrator 18.1.0, SVG Export Plug-In . SVG Version: 6.00 Build 0)  -->
<svg version="1.1" id="Calque_1" xmlns="http://www.w3.org/2000/svg" xmlns:xlink="http://www.w3.org/1999/xlink" x="0px" y="0px"
	 viewBox="0 300 1920 300" enable-background="new 0 300 1920 300" xml:space="preserve">
<rect y="300" fill="#373A3C" width="1920" height="300"/>
<polygon fill="#1E74BB" points="1920,600 720,600 1320,450 1920,300 "/>
<polygon fill="#2189C7" points="1200,601.2 0,601.2 0,301.2 600,451.2 "/>
<g>
	<path fill="#1E74BB" d="M905.5,474.9l-11-134.5l131.4,0.3l-11.6,134.2l-53.6,15.5L905.5,474.9z"/>
	<path fill="#2189C7" d="M960.7,477.4V353.2l54.1,0.2l-9.7,111.1L960.7,477.4z"/>
	<path fill="#FFFFFF" d="M1001.4,369.1h-83.3l2.3,16.2h39.5L921,402l2.3,15.7h57.3l-2.1,21.9l-19.4,3.8l-17.6-4.5l-1.4-12.5h-16.2
		l2.2,25.9l34.6,9.7l33.2-10.6l4.2-50.6H963l38.2-15.8L1001.4,369.1z"/>
</g>
</svg>
