<?xml version="1.0" encoding="utf-8"?>
<!-- Generator: Adobe Illustrator 18.1.0, SVG Export Plug-In . SVG Version: 6.00 Build 0)  -->
<svg version="1.1" id="Calque_1" xmlns="http://www.w3.org/2000/svg" xmlns:xlink="http://www.w3.org/1999/xlink" x="0px" y="0px"
	 viewBox="0 300 1920 300" enable-background="new 0 300 1920 300" xml:space="preserve">
<rect y="300" fill="#373A3C" width="1920" height="300"/>
<polygon fill="#E35126" points="1920,600 720,600 1320,450 1920,300 "/>
<polygon fill="#EE662B" points="1200,601.2 0,601.2 0,301.2 600,451.2 "/>
<g>
	<path fill="#E35126" d="M905.1,474.8l-11-134.5l131.4,0.3l-11.6,134.2l-53.6,15.5L905.1,474.8z"/>
	<path fill="#EE662B" d="M960.3,477.2V353.1l54.1,0.2l-9.7,111.1L960.3,477.2z"/>
	<path fill="#FFFFFF" d="M999.5,384.1l1.5-16.4h-83.2l4.6,50.3h57.5l-2.3,21.5l-18.4,5l-18.7-5.4l-1-12.8H923l2.3,26.2l33.9,9.5
		l34.2-9.5l4.6-51.1h-60.3l-1.7-17.2L999.5,384.1L999.5,384.1z"/>
</g>
</svg>
