<?xml version="1.0" encoding="utf-8"?>
<!-- Generator: Adobe Illustrator 18.1.0, SVG Export Plug-In . SVG Version: 6.00 Build 0)  -->
<svg version="1.1" id="Calque_1" xmlns="http://www.w3.org/2000/svg" xmlns:xlink="http://www.w3.org/1999/xlink" x="0px" y="0px"
	 viewBox="0 300 1920 300" enable-background="new 0 300 1920 300" xml:space="preserve">
<rect y="300" fill="#373A3C" width="1920" height="300"/>
<polygon fill="#E9CA2F" points="1920,600 720,600 1320,450 1920,300 "/>
<polygon fill="#FEDE23" points="1200,601.2 0,601.2 0,301.2 600,451.2 "/>
<g>
	<path fill="#E9CA2F" d="M904.2,474.4l-11-134.5l131.4,0.3L1013,474.4l-53.6,15.5L904.2,474.4z"/>
	<path fill="#FEDE23" d="M959.4,476.9V352.7l54.1,0.2l-9.7,111.1L959.4,476.9z"/>
	<g>
		<path fill="#FFFFFF" d="M953.6,367.5h-14.3v82.7l-11.2-2.2v-11.2l-13.2-2.2v24.9l38.7,10V367.5z M964.3,367.5h39.6l-2.7,15.8
			h-21.8v26h21.8l-2.7,52.5l-34.3,8v-16.4l23.2-8l1.4-21.7l-24.5,3.5V367.5L964.3,367.5z"/>
	</g>
</g>
</svg>
