<?xml version="1.0" encoding="utf-8"?>
<!-- Generator: Adobe Illustrator 18.1.0, SVG Export Plug-In . SVG Version: 6.00 Build 0)  -->
<svg version="1.1" id="Calque_1" xmlns="http://www.w3.org/2000/svg" xmlns:xlink="http://www.w3.org/1999/xlink" x="0px" y="0px"
	 viewBox="0 0 200 150" enable-background="new 0 0 200 150" xml:space="preserve">
<path fill="#3B85C6" d="M90.4,52.3c-0.2-0.2-0.6-0.2-0.9,0c-4.2,3.9-7.1,9-7.1,12c0,4.9,3.1,7.8,7.5,7.8c4.4,0,7.5-2.9,7.5-7.8
	C97.5,61.3,94.6,56.2,90.4,52.3z M90,69c-2.2,0-3.8-1.5-3.8-3.6c0-0.5,0.2-2.2,3.3-5.6c0.2-0.3,0.7-0.3,0.9,0
	c3.1,3.4,3.3,5.1,3.3,5.6C93.8,67.6,92.2,69,90,69z"/>
<path fill="#5DA5DA" d="M81.3,55.8c-0.3,0-0.6,0.3-0.6,0.6c-0.2,5.7,1.4,11.4,3.5,13.5c3.5,3.5,7.7,3.3,10.9,0.2s3.3-7.4-0.2-10.9
	C92.7,57.1,87,55.6,81.3,55.8z M92.8,67.9c-1.6,1.6-3.7,1.6-5.2,0.1c-0.3-0.3-1.4-1.6-1.6-6.3c0-0.4,0.3-0.7,0.7-0.7
	c4.6,0.2,5.9,1.3,6.3,1.6C94.5,64.2,94.4,66.3,92.8,67.9z"/>
<path fill="#74B5E3" d="M98.9,56.4c0-0.3-0.3-0.6-0.6-0.6c-5.7-0.2-11.4,1.4-13.5,3.5c-3.5,3.5-3.3,7.7-0.2,10.9s7.4,3.3,10.9-0.2
	C97.5,67.7,99.1,62.1,98.9,56.4z M86.7,67.9c-1.6-1.6-1.6-3.7-0.1-5.2c0.3-0.3,1.6-1.4,6.3-1.6c0.4,0,0.7,0.3,0.7,0.7
	c-0.2,4.6-1.3,5.9-1.6,6.3C90.4,69.5,88.3,69.5,86.7,67.9z"/>
</svg>
