<?xml version="1.0" encoding="UTF-8"?><svg id="Calque_1" xmlns="http://www.w3.org/2000/svg" viewBox="0 0 200 25.36"><defs><style>.cls-1{fill:#fff;}.cls-2{isolation:isolate;}.cls-3{fill:#3b85c6;}.cls-4{fill:#74b5e3;}.cls-5{fill:#5da5da;}</style></defs><g class="cls-2"><path class="cls-1" d="M30.48,17.3c.22,.56,.45,.9,.45,.9-.11,.11-.22,.22-.22,.34-.11,.11-.11,.22-.22,.45l-.34,.34c-.11,.11-.34,.11-.45,.22l-.67,.34c-.22,.11-.45,.22-.56,.22-.22,.11-.45,.11-.67,.22-.22,0-.45,.11-.67,.11-.11,0-.34,.11-.45,.11h-.67q-.11,0-.22-.11c-.11,0-.11-.11-.22-.11s-.11-.11-.22-.11c-.11-.11-.22-.11-.22-.11-.11,0-.11-.22-.22-.45s-.11-.56-.11-1.01c0-.34,.11-.78,.22-1.46,.22-.67,.22-1.12,.22-1.34v-.45c0-.22,.11-.67,.22-1.34s.22-1.12,.22-1.46c0-.11,0-.22-.11-.34s-.11-.11-.11-.22v-.56c0-.22,.11-.45,.11-.67s.11-.45,.11-.56,.11-.45,.11-.56c0-.22,.11-.45,.11-.67s.11-.45,.11-.67c0-.11,.11-.34,.22-.56s.22-.45,.34-.78c.11-.11,.11-.22,.11-.34s.11-.22,.11-.34,.11-.22,.22-.34,.22-.11,.34-.22c.11,0,.22-.11,.34-.11h.22c.22,0,.34,.11,.45,.22,.11,.11,.11,.34,.11,.56v.34c0,.11,0,.22-.11,.34,0,.11,0,.22-.11,.34,0,.11,0,.22-.11,.22v.78c0,.11-.11,.22-.11,.34,0,.34-.11,.56-.11,.78v.45c0,.34-.11,.67-.22,1.12s-.22,.78-.22,1.01v.34c0,.11-.11,.34-.11,.56-.11,.34-.11,.56-.22,.67,0,.11-.11,.22-.11,.34v.34c0,.11,0,.34-.11,.45-.11,.78-.22,1.34-.34,1.9-.11,.45-.11,.9-.11,1.12s0,.45,.11,.56,.11,.22,.22,.22c.45,0,.9,0,1.34-.11,.45-.11,.9-.22,1.34-.45h.11s.11,0,.11-.11c.11-.11,.11-.22,.22-.22s.11-.11,.22-.22q.22-.11,.34-.22Z"/><path class="cls-1" d="M30.81,16.85l.9-.67,.11-.11s.11-.11,.11-.22,.11-.11,.22-.22c.11-.11,.22-.11,.22-.11,0-.11,.11-.11,.22-.22l.34-.34c.11,0,.22-.11,.34-.22l.34-.34c.67-.56,1.12-1.01,1.68-1.34s.9-.45,1.23-.45c.22,0,.34,0,.45,.11s.11,.22,.11,.34,0,.22-.11,.34c0,.11-.11,.22-.22,.22-.22,.11-.34,.22-.56,.45-.11,.11-.22,.34-.45,.45s-.34,.34-.56,.45c-.11,.11-.11,.22-.22,.22l-.22,.22-.34,.34c-.11,.11-.22,.34-.45,.56l-.9,.9s-.11,.11-.22,.34-.34,.45-.45,.67l.11,.11c.11,0,.34-.11,.45-.22,.11-.11,.34-.22,.56-.45,.22-.22,.45-.34,.56-.56,.11-.11,.22-.22,.34-.22,0,0,.11,0,.11-.11l.11-.11c.34-.34,.56-.67,.9-.78,.22-.22,.56-.22,.78-.22,.11,0,.22,0,.34,.22s.11,.34,.11,.56v1.01c0,.22,0,.45,.22,.56,.11,.22,.34,.22,.45,.22h.22c.11,0,.11-.11,.22-.11,0-.11,.11-.11,.11-.22l.11-.11s.11,0,.11-.11l.11-.11c.11,.22,.22,.34,.22,.56,.11,.11,.11,.34,.11,.45l-.45,.45-.45,.45c-.22,.11-.45,.22-.56,.34-.22,.11-.34,.11-.56,.11-.45,0-.78-.11-1.01-.34-.22-.22-.34-.67-.45-1.12v-.22q0-.11-.11-.22l-.11,.11-.11,.11c-.11,.11-.22,.11-.34,.22s-.34,.22-.45,.34l-.56,.56c-.11,.11-.34,.22-.34,.34-.11,.11-.34,.22-.45,.34-.22,.11-.34,.22-.56,.34-.11,.11-.22,.11-.34,.22-.11,0-.22,.11-.22,.11-.34,0-.56-.11-.78-.22-.11-.11-.22-.45-.22-.78,0-.22,0-.34,.11-.56,.11-.11,.22-.34,.34-.45v-.34s0-.11-.11-.11c0-.11-.11-.22-.11-.34s-.11-.22-.22-.34l.11-.11c-.11-.34,0-.45,.11-.56Z"/><path class="cls-1" d="M45.59,10.25c0-.11,0-.34-.11-.45,0,.11,0,0,0-.11s0-.45,.11-.78c0-.11,.11-.11,.11-.22s0-.11,.11-.11q-.11-.11-.11-.22v-.11c0-.45,.11-.78,.11-1.23,0-.11,.11-.22,.22-.34l.45-.45c.11-.11,.34-.22,.45-.34,.11-.11,.34-.11,.45-.22,.22-.11,.34-.11,.34-.11l.11-.11c.11,0,.22,0,.22,.11,.11,.11,.11,.22,.11,.45,0,.11,0,.22-.11,.45s-.11,.34-.11,.45v1.68c0,.34,.11,.78,.11,1.23s.22,.9,.34,1.34c.22,.56,.45,1.01,.67,1.34s.56,.45,.78,.45,.56-.11,.9-.45l1.34-1.34c.45-.45,.78-.9,1.12-1.34s.56-.78,.78-1.12,.34-.56,.67-.78c.22-.22,.56-.45,.78-.67,.11,0,.22-.11,.22-.11h.11c.11,0,.22,.11,.22,.22,.11,.22,.11,.45,.11,.78s-.11,.67-.11,1.01c-.11,.56-.11,1.01-.22,1.57-.11,.56-.22,1.12-.45,1.68-.11,.34-.22,.56-.22,.78-.11,.22-.11,.45-.11,.56s0,.22-.11,.34c0,.11,0,.34-.11,.45-.11,.22-.11,.34-.22,.56-.11,.11-.11,.34-.22,.45,0,.22-.11,.45-.11,.67v.45c-.11,.67-.34,1.34-.45,2.02q0,.11-.11,.22c-.11,0-.22,.11-.34,.22l-.34,.34-.34,.34q-.11,.11-.22,.11h-.11v-.34c.11-.22,.22-.56,.22-1.01,.11-.45,.11-1.01,.22-1.68,0-.11,.11-.56,.11-1.12,.11-.56,.22-1.46,.45-2.46,0-.22,.11-.34,.11-.67,0-.22,.11-.56,.22-.9,0-.11,.11-.34,.11-.45v-.34h-.11s-.11,0-.22,.11l-.45,.45-.34,.34-.34,.34-.56,.56-.78,.78c-.11,0-.11,.11-.22,.11-.11,.11-.22,.11-.34,.22-.11,.22-.34,.34-.67,.56-.34,.11-.56,.22-.78,.22-.34,0-.56-.11-.78-.22-.22-.22-.56-.45-.78-.78-.11-.22-.22-.34-.34-.56-.11-.22-.22-.34-.34-.56h0s-.11,.34-.22,.78c-.11,.56-.22,1.23-.34,2.24s-.22,1.79-.34,2.46c-.11,.56-.11,1.01-.11,1.12,0,.22-.11,.45-.11,.56-.11,.11-.22,.22-.34,.22s-.22,0-.34,.11-.34,.11-.45,.11h-.11v-.11l.11-.34-.11-.34c0-.22,.11-.45,.11-.67,0-.45,0-.78,.11-1.12,0-.11,0-.22,.11-.34,0-.22,.11-.34,.11-.45v-.45c0-.34,.11-.9,.22-1.68,.11-.78,.22-1.34,.22-1.68,0-.11,0-.34-.11-.45,0-.22,.11-.56,.11-.9l.34-1.34Z"/><path class="cls-1" d="M56.45,16.85l.9-.67,.11-.11s.11-.11,.11-.22,.11-.11,.22-.22c.11-.11,.22-.11,.22-.11,0-.11,.11-.11,.22-.22l.34-.34c.11,0,.22-.11,.34-.22l.34-.34c.67-.56,1.12-1.01,1.68-1.34s.9-.45,1.23-.45c.22,0,.34,0,.45,.11s.11,.22,.11,.34,0,.22-.11,.34c0,.11-.11,.22-.22,.22-.22,.11-.34,.22-.56,.45-.11,.11-.22,.34-.45,.45s-.34,.34-.56,.45c-.11,.11-.11,.22-.22,.22l-.22,.22-.34,.34c-.11,.11-.22,.34-.45,.56l-.9,.9s-.11,.11-.22,.34-.34,.45-.45,.67l.11,.11c.11,0,.34-.11,.45-.22,.11-.11,.34-.22,.56-.45,.22-.22,.45-.34,.56-.56,.11-.11,.22-.22,.34-.22,0,0,.11,0,.11-.11l.11-.11c.34-.34,.56-.67,.9-.78,.22-.22,.56-.22,.78-.22,.11,0,.22,0,.34,.22s.11,.34,.11,.56v1.01c0,.22,0,.45,.22,.56,.11,.22,.34,.22,.45,.22h.22c.11,0,.11-.11,.22-.11,0-.11,.11-.11,.11-.22l.11-.11s.11,0,.11-.11l.11-.11c.11,.22,.22,.34,.22,.56,.11,.11,.11,.34,.11,.45l-.45,.45-.45,.45c-.22,.11-.45,.22-.56,.34-.22,.11-.34,.11-.56,.11-.45,0-.78-.11-1.01-.34-.22-.22-.34-.67-.45-1.12v-.22q0-.11-.11-.22l-.11,.11-.11,.11c-.11,.11-.22,.11-.34,.22s-.34,.22-.45,.34l-.56,.56c-.11,.11-.34,.22-.34,.34-.11,.11-.34,.22-.45,.34-.22,.11-.34,.22-.56,.34-.11,.11-.22,.11-.34,.22-.11,0-.22,.11-.22,.11-.34,0-.56-.11-.78-.22-.11-.11-.22-.45-.22-.78,0-.22,0-.34,.11-.56,.11-.11,.22-.34,.34-.45v-.34s0-.11-.11-.11c0-.11-.11-.22-.11-.34s-.11-.22-.22-.34l.11-.11c0-.34,.11-.45,.11-.56Z"/><path class="cls-1" d="M64.07,17.3h0l.11-.22,1.01-1.01,1.01-1.01c.11-.11,.11-.22,.22-.22s.22-.11,.22-.11c.22,0,.45,.11,.56,.22s.22,.34,.34,.56c0,.22,.11,.45,.11,.67s.11,.45,.11,.67c0,.11,.11,.34,.22,.67,.11,.22,.11,.45,.11,.45,0,.11,.11,.11,.11,.11h.22c.11,0,.22,0,.34-.11,.11,0,.22-.11,.45-.22,.11-.11,.22-.22,.34-.22s.22-.22,.34-.22l.45,.9c-.11,.11-.22,.22-.45,.34-.22,.11-.45,.34-.67,.45-.34,.22-.56,.34-.67,.45s-.34,.34-.45,.34c-.67,0-1.01-.11-1.23-.22s-.34-.56-.67-1.23c0,0-.11-.11-.11-.22s-.11-.11-.22-.22c-.11-.11-.11-.22-.22-.34s0-.11,0-.11c-.11,0-.22,.11-.45,.22s-.45,.34-.67,.67c0-.11-.11-.22-.11-.34s-.11-.22-.11-.45c-.11,0-.11-.11-.22-.22,0,.11,0,0,0,0Zm4.25-8.06c.22,0,.34,0,.34,.11,.11,.11,.11,.22,.11,.34,0,.22-.11,.34-.11,.45-.11,.22-.11,.45-.22,.56s-.11,.22-.11,.34c-.11,.11-.11,.34-.22,.45l-.34,.34c-.11,.11-.34,.22-.45,.22s-.22,.11-.22,.11h-.67c-.11,0-.11-.11-.22-.22,0-.11-.11-.34-.11-.56s.11-.45,.34-.78,.45-.45,.67-.45c.11-.11,.22-.34,.45-.45,.11,0,.11-.11,.22-.11s.45-.34,.56-.34Z"/><path class="cls-1" d="M70,17.3h0c.11-.11,.11-.22,.22-.34,.11-.11,.22-.22,.45-.34,.22-.11,.45-.22,.56-.34,.11-.11,.22-.11,.22-.22q.11-.11,.11-.22c.11,0,.11-.11,.22-.22l.34-.34,.11-.11c0-.11,.11-.11,.11-.22,.11-.11,.22-.11,.34-.22,.11-.11,.22-.22,.45-.34l.56-.56,.67-.67c.11,0,.22-.11,.22-.11h.22c.34,0,.56,.11,.67,.22s.22,.34,.22,.67v.34c0,.11,0,.34-.11,.56-.11,.67-.11,1.12-.22,1.23s-.22,.67-.45,1.46c0,.11-.11,.34-.22,.45-.11,.22-.11,.45-.22,.67l.11,.11s.11,0,.22-.11,.34-.22,.45-.45c.22-.22,.45-.34,.56-.56l.22-.22c.11,.22,.11,.34,.22,.56,.11,.11,.11,.34,.22,.45-.11,0-.22,.11-.22,.22l-.22,.22c-.11,.11-.34,.22-.45,.34s-.45,.22-.67,.45c-.11,.11-.22,.22-.45,.34s-.34,.34-.56,.45h-.22c-.11,.11-.22,.22-.22,.34q-.11,.11-.22,.11c-.11,0-.22,.11-.34,.11s-.22,.11-.34,.11-.11-.11-.11-.11v-.22c-.11-.22-.22-.45-.22-.67s.11-.67,.11-.9v-.34c0-.22-.11-.34-.11-.34,0-.22,.11-.34,.22-.56s.34-.22,.56-.22c.11,0,.22,0,.22,.11s.11,.11,.11,.11c0,0,.11-.11,.11-.34s.11-.45,.11-.78,.11-.56,.11-.78v-.56q0-.11-.11-.22t-.22-.11c-.11,0-.34,.22-.9,.67-.45,.45-1.12,1.01-2.02,1.79,0,0-.11,.11-.11,.22s-.11,.11-.22,.22c0-.11-.11-.22-.11-.34,.11,0,.11-.22,0-.45Z"/><path class="cls-1" d="M76.38,17.3s.11-.11,.11-.22,.11-.11,.22-.22l.78-.56,.45-.45c.22-.22,.45-.45,.78-.67,0-.11,.11-.11,.22-.22l.34-.34c.11-.11,.22-.22,.34-.22s.22-.11,.22-.22l.34-.34,.34-.34c.11-.11,.22-.22,.34-.22s.22-.11,.34-.11,.22,0,.34,.11c.11,0,.11,.11,.11,.11-.11,.11-.11,.34-.22,.45l.11,.11c.34-.11,.56-.22,.67-.22,.22,0,.34-.11,.34-.11,.45,0,.9,.11,1.12,.45s.34,.78,.34,1.34v.45c0,.11-.11,.34-.11,.56-.11,.22-.11,.34-.22,.56-.11,.11-.11,.22-.22,.34,0,.11,.11,.11,.11,.22l.11,.11h.22c.11,0,.11-.11,.22-.11,.11,.11,.11,.34,.22,.45s.11,.34,.22,.45l-.34,.34-.34,.34c-.11,.11-.34,.22-.45,.34-.11,.11-.22,.11-.45,.11-.11,0-.34,0-.34-.11s-.22-.22-.22-.34c-.22,.22-.34,.45-.67,.67-.22,.22-.56,.34-.78,.45s-.34,.11-.45,.22-.22,.11-.34,.11h-.45c-.34,0-.78-.11-1.01-.45-.34-.34-.45-.67-.45-1.12,0-.11,0-.34,.11-.67-.45-.56-.45-.67-.45-.78v-.11h-.11s-.11,0-.22,.11-.34,.22-.56,.45c0,0,0,.11-.11,.11s-.11,.11-.11,.22c0-.11-.11-.34-.22-.45,0-.22-.11-.34-.22-.56Zm4.93-1.9s-.11,0-.11,.11l-.22,.22c-.11,.11-.22,.34-.34,.56l-.22,.22c-.11,0-.22,.11-.34,.11s-.11,.11-.22,.22-.11,.34-.22,.56-.11,.45-.11,.56v.34c0,.22,0,.34,.11,.45s.22,.11,.45,.11c.34,0,.56-.11,.9-.22,.22-.22,.56-.45,.78-.78l.34-.34s.11-.11,.11-.22,.11-.22,.11-.34l.22-.56c-.11-.22-.11-.34-.22-.45,0-.11-.11-.22-.11-.22,0,0-.11,0-.22-.11s-.45-.11-.67-.22Z"/><path class="cls-1" d="M83.89,17.3l.11-.11c0-.11,.11-.11,.11-.22,.11,0,.11-.11,.22-.22l.34-.34c.11-.11,.22-.34,.45-.56,.22-.22,.45-.45,.67-.78l.45-.45c.11-.22,.34-.45,.56-.67s.45-.45,.67-.56,.45-.11,.67-.11,.45,.11,.56,.22,.22,.34,.22,.67c0,.11-.11,.45-.22,.9s-.34,1.01-.56,1.79c-.11,.11-.11,.22-.22,.34,0,.11-.11,.22-.11,.22v.11s0,.11,.11,.11c0,0,.11,0,.11-.11l.11-.11c0-.11,.11-.22,.22-.34s.22-.22,.45-.34c.11-.11,.11-.22,.22-.34l.34-.34,.11-.11c0-.11,.11-.11,.11-.22,.11-.11,.22-.22,.34-.22s.22-.22,.45-.34c.22-.11,.34-.22,.45-.22s.22-.11,.34-.11c.22,0,.45,0,.56,.11s.34,.22,.45,.45c.11,.45,.22,.78,.34,1.23,.11,.22,.11,.34,.22,.45s.22,.11,.34,.11h.22c.11,0,.11-.11,.22-.11l.45,.9-.34,.34-.34,.34c-.11,.11-.34,.22-.45,.34-.11,.11-.22,.11-.45,.11-.11,0-.34,0-.45-.11l-.34-.34s-.11-.11-.22-.34c-.11-.11-.22-.34-.34-.56l-.34-.34c-.11-.11-.22-.34-.45-.56h-.11c-.11,0-.22,.11-.34,.22-.11,.11-.22,.22-.45,.34-.34,.22-.56,.45-.67,.56s-.22,.11-.22,.22c-.11,.11-.22,.34-.45,.67l-.9,.9-.22,.22-.22,.22c-.11,.11-.22,.11-.34,.11h-.34c-.22,0-.45-.11-.45-.34s0-.34-.11-.56c.11-.34,.22-.67,.34-1.12,.11-.45,.34-.9,.45-1.57v-.11q0-.11,.11-.22c0-.11,.11-.11,.11-.22v-.34h-.11q-.11,0-.22,.11c-.11,.11-.22,.22-.45,.34l-.45,.45-.22,.22c-.11,0-.11,.11-.22,.22l-.34,.34s0,.11-.11,.11-.11,.11-.11,.22c0-.11-.11-.22-.11-.34-.11,.22-.11,0-.22-.22Z"/><path class="cls-1" d="M99,17.3h0l.11-.22,.34-.34,.22-.22s.11-.11,.22-.11,.22-.11,.45-.22l.11-.11c0-.11,.11-.22,.22-.34,.11-.11,.22-.34,.45-.45l.11-.11c.11,0,.11-.11,.22-.22l.45-.45c.11-.22,.34-.34,.45-.45l.34-.34c.22-.11,.45-.34,.78-.67,0,0,.11-.11,.22-.11,.11-.11,.34-.11,.45-.22,.11,0,.11-.11,.22-.22,0-.11,.11-.22,.11-.34s.11-.22,.11-.34,.11-.22,.11-.45c.11-.22,.11-.34,.11-.56,0-.11,.11-.22,.11-.22,.11-.34,.22-.67,.45-1.12s.45-.9,.67-1.46c.11-.34,.34-.56,.45-.9,.11-.22,.22-.34,.34-.34,.11-.11,.34-.11,.45-.11s.22,0,.22,.11c.11,.11,.11,.22,.11,.45,0,.34,0,.56-.11,.9,0,.22-.11,.56-.22,.78v.56c0,.11,0,.22-.11,.22,0,.11-.11,.22-.22,.22v.45l-.11,.22v.34s0,.11-.11,.22c0,.11-.11,.34-.22,.56s-.22,.45-.22,.56c-.11,.11-.11,.22-.11,.22l-.11,.11c0,.11-.11,.11-.11,.22v.22l-.34,2.24v.67c0,.22,0,.34,.11,.45,0,.11,.11,.22,.22,.45,.11,.22,.22,.34,.34,.56,.11,.11,.11,.22,.22,.34,.11,.11,.22,.11,.34,.11s.22,0,.45-.11c.11-.11,.22-.22,.45-.34,.11,.22,.11,.34,.22,.56,.11,.11,.11,.34,.22,.45l-.22,.22c-.11,.11-.22,.34-.45,.56-.11,.11-.22,.22-.45,.34-.11,.11-.34,.11-.56,.11-.56,0-.9-.11-1.23-.45-.34-.22-.56-.67-.67-1.23,0-.11,0-.22-.11-.34q0-.11-.11-.22c0-.11-.11-.22-.22-.45,0,.11-.11,.11-.11,.11-.11,0-.22,.11-.22,.22s-.22,.22-.34,.34c0,.11-.11,.11-.11,.22s-.11,.22-.22,.34c-.22,.22-.45,.56-.67,.78s-.45,.56-.67,.78c-.34,.34-.56,.56-.9,.78-.22,.11-.45,.22-.67,.22-.34,0-.56-.11-.78-.22-.11-.11-.22-.45-.22-.78,0-.11,.11-.34,.22-.67,.11-.34,.22-.45,.22-.67l-.11-.11-.56-1.01Zm5.15-2.91v-.11l-.34,.34c-.11,.11-.34,.34-.56,.45,0,.11-.11,.34-.34,.56-.22,.22-.45,.56-.67,.9-.11,.11-.22,.22-.34,.56-.11,.22-.34,.56-.56,.9-.11,.11-.11,.34-.22,.56,0,0,0,.11,.11,.11,.22-.11,.45-.22,.78-.56,.34-.34,.67-.67,1.12-1.23s.78-1.01,.9-1.46c0-.45,.11-.78,.11-1.01Z"/><path class="cls-1" d="M107.51,17.3c.11-.11,.22-.34,.34-.45l.45-.45c0-.11,0-.22,.11-.45v-.45c0-.11,0-.22,.11-.34s.11-.22,.11-.45c.11-.11,.11-.34,.22-.56s.22-.45,.45-.78c.11-.11,.34-.34,.45-.56s.34-.34,.45-.56l.22-.22c.11-.11,.22-.11,.22-.22,.11,0,.22,0,.22-.11s.22,0,.34,0h.45c.11,0,.22,.11,.22,.22,0,0,.11,.11,.11,.22s.11,.22,.11,.45c0,.11,0,.34,.11,.45h0s-.11,.22-.11,.34l-.11,.34c-.11,.34-.34,.67-.67,1.12-.34,.45-.78,.9-1.34,1.46,0,0-.11,.11-.11,.22v.22c0,.11,0,.22,.11,.34,0,.11,.11,.22,.22,.22,0,0,.11,.11,.22,.11s.22,.11,.45,.11,.56-.11,.78-.11c.22-.11,.45-.11,.56-.22,0,0,.11,0,.11-.11,.11,0,.11-.11,.22-.11,.11,.22,.22,.34,.22,.56,.11,.11,.11,.34,.11,.45-.34,.34-.78,.67-1.12,.9s-.56,.34-.9,.34c-.11,.11-.22,.11-.34,.11h-.45c-.22,0-.45,0-.67-.11s-.34-.22-.45-.34c-.11-.11-.11-.22-.22-.34-.11-.11-.11-.34-.22-.45s-.11-.22-.22-.34c0-.11-.11-.11-.22-.11,0,0-.11,0-.22,.11-.11,0-.11,.11-.22,.22,0-.11-.11-.22-.11-.34,.22,.11,.11-.11,0-.34Zm3.36-3.36c-.11,0-.34,.22-.56,.56s-.34,.67-.34,.9v.11h.11q.11,0,.22-.11c0-.11,.11-.11,.11-.22l.22-.22,.22-.22c.11-.11,.11-.22,.22-.34s.11-.22,.11-.34c-.22,.11-.22,0-.34-.11,.11,.11,0,0,0,0Z"/><path class="cls-1" d="M112.77,17.3h0c.11-.11,.11-.22,.22-.34,.11-.11,.22-.22,.45-.34,.22-.11,.45-.22,.56-.34,.11-.11,.22-.11,.22-.22q.11-.11,.11-.22c.11,0,.11-.11,.22-.22l.34-.34,.11-.11s.11-.11,.11-.22c.11-.11,.22-.11,.34-.22,.11-.11,.22-.22,.45-.34l.56-.56,.67-.67c.11,0,.22-.11,.22-.11h.22c.34,0,.56,.11,.67,.22s.22,.34,.22,.67v.34c0,.11,0,.34-.11,.56-.11,.67-.11,1.12-.22,1.23,0,.11-.22,.67-.45,1.46,0,.11-.11,.34-.22,.45s-.11,.45-.22,.67l.11,.11s.11,0,.22-.11,.34-.22,.45-.45c.22-.22,.45-.34,.56-.56l.22-.22c.11,.22,.11,.34,.22,.56,.11,.11,.11,.34,.22,.45-.11,0-.22,.11-.22,.22l-.22,.22c-.11,.11-.34,.22-.45,.34-.22,.11-.45,.22-.67,.45-.11,.11-.22,.22-.45,.34s-.34,.34-.56,.45h-.22c-.11,.11-.22,.22-.22,.34q-.11,.11-.22,.11c-.11,0-.22,.11-.34,.11s-.22,.11-.34,.11-.11-.11-.11-.11v-.22c-.11-.22-.22-.45-.22-.67-.11-.22-.11-.56-.11-.78v-.34c0-.22-.11-.34-.11-.34,0-.22,.11-.34,.22-.56,.11-.11,.34-.22,.56-.22,.11,0,.22,0,.22,.11s.11,.11,.11,.11c0,0,.11-.11,.11-.34s.11-.45,.11-.78,.11-.56,.11-.78v-.56q0-.11-.11-.22s-.11-.11-.22-.11-.34,.22-.9,.67c-.45,.45-1.12,1.01-2.02,1.79,0,0-.11,.11-.11,.22s-.11,.11-.22,.22c0-.11-.11-.22-.11-.34s.34-.34,.22-.56Z"/><path class="cls-1" d="M124.53,16.4v-.34c0-.22,0-.45,.11-.56,0-.11,.11-.34,.22-.45,0,0,.11-.11,.22-.11s.22-.11,.45-.22c.11-.11,.22-.11,.34-.22,.11-.11,.11-.22,.11-.34s.11-.22,.11-.34c.11-.11,.11-.22,.22-.45,0,0,.11-.22,.22-.67s.34-1.12,.56-1.9c.11-.22,.11-.45,.22-.67,.11-.22,.11-.34,.22-.45,.22-.56,.45-1.01,.56-1.12s.22-.34,.34-.45h0l-.34-.56,.45-.45,.56-.11c.11,0,.22-.11,.34-.34,.11-.22,.22-.34,.45-.56,0,0,.11-.11,.22-.11,.11-.11,.22-.22,.45-.34,.11-.11,.22-.22,.34-.22s.22-.11,.22-.11c.22,0,.34,0,.45,.11s.11,.22,.11,.34-.11,.34-.22,.67-.22,.56-.22,.67v.22c0,.11,.11,.11,.11,.11l1.23,.67c.11,0,.11,.11,.22,.34,0,.22,.11,.45,.11,.78,0,.22,.11,.45,.11,.67v.45c0,.34-.11,.56-.11,.9,.11,.34,.11,.78,.22,1.23,0,.45-.11,.78-.11,1.23v.11l.11,.11c.11,0,.22,0,.22,.11,.11,0,.11,.11,.11,.22s0,.22-.11,.34c0,.11-.11,.11-.11,.22-.11,0-.11,.11-.22,.11l-.11,.11,.11,.67-.22,1.46v.45c0,.22,0,.45-.11,.67s-.11,.34-.11,.45v.22c0,.11,.11,.22,.11,.34,0,.22-.11,.34-.11,.56s-.11,.34-.11,.56c-.11,.22-.22,.45-.34,.56-.11,.11-.22,.22-.45,.22q-.11,0-.22-.11c0-.11-.11-.22-.11-.34v-1.12c0-.22,0-.45,.11-.9v-1.01c0-.11-.11-.22-.11-.34v-.78l.11-.22-.11-1.01h-.34c-.11,0-.22,.11-.34,.11s-.22,0-.34,.11h-.67c-.11,.11-.22,.11-.34,.11s-.34,.11-.56,.22-.56,.22-.78,.34c-.22,.11-.34,.11-.56,.22-.11,0-.34,.11-.34,.11q-.11,0-.22,.11c0,.11-.11,.11-.11,.22s-.11,.22-.11,.45l-.34,.67c0,.11-.11,.22-.11,.34s-.11,.34-.11,.56c0,.11-.11,.22-.11,.34s-.11,.34-.22,.45v.34c0,.11,0,.22-.11,.45,0,.11-.11,.22-.11,.34-.11,.11-.11,.34-.22,.45,0,.11-.11,.22-.22,.22s-.22,.11-.45,.11c-.11,0-.22,0-.22-.11-.11-.11-.11-.22-.11-.34,0-.22,0-.34,.11-.56,0-.22,.11-.45,.22-.78,.11-.34,.22-.67,.22-.9,.11-.22,.11-.45,.11-.56,0,0,0-.11,.11-.22,0-.11,.11-.22,.11-.45,.11-.22,.11-.34,.22-.56v-.11h-.34q-.11,0-.11-.11v-.34c-.56-.11-.45-.11-.45-.22Zm3.7-1.9c.11,0,.34,0,.67-.11,.34-.11,.56-.11,.67-.11h.34c.22,0,.34-.11,.56-.11s.34-.11,.56-.11q.11,0,.11-.11v-1.01c0-.11,0-.34,.11-.45l-.11-.45v-.45c0-.11,0-.34-.11-.45v-.34s0-.11-.11-.11c0-.11-.11-.11-.11-.22-.11-.11-.11-.22-.22-.34s-.11-.22-.22-.34l-.34-.34c-.11-.11-.22-.11-.34-.11s-.22,.11-.45,.34-.22,.56-.45,1.01c0,0-.11,.22-.22,.34s-.22,.45-.45,.67c0,.22-.11,.56-.22,1.01-.11,.34-.34,.9-.67,1.34,0,0,0,.11-.11,.11v.22h.45c.11,0,.67,.11,.67,.11Z"/><path class="cls-1" d="M133.71,17.3c.11-.22,.34-.45,.56-.67s.45-.56,.78-.9q0-.11,.11-.22c0-.11,.11-.22,.11-.34,.34-.56,.67-1.12,1.01-1.57s.56-1.01,.78-1.46c.11-.11,.11-.22,.22-.45s.11-.34,.22-.56c.11-.11,.22-.34,.34-.34,.11-.11,.22-.11,.22-.11,.11,0,.22,.11,.34,.22,.11,.11,.11,.34,.11,.56,0,.11-.11,.56-.34,1.34-.22,.78-.56,1.79-1.01,3.14-.11,.34-.22,.78-.45,1.34s-.34,1.34-.56,2.24c0,.11,0,.34-.11,.45s-.11,.34-.11,.56c-.11,.45-.22,.78-.22,1.01s-.11,.45-.11,.56v.11s.11-.11,.11-.22,.11-.22,.11-.45,.11-.34,.11-.45v-.34c.11-.45,.34-.9,.56-1.57s.45-1.34,.67-2.13l.34-.67c.11-.34,.34-.67,.45-1.01,.11-.11,.34-.22,.45-.34,.11-.11,.22-.11,.34-.11,.22,0,.34,0,.56,.11,.11,.11,.34,.22,.45,.45,0,0,.11,.22,.22,.34s.22,.45,.34,.78c.11,.22,.22,.34,.22,.45l.22,.22,.45,.9s-.11,0-.22,.11c-.11,0-.34,.11-.67,.11l-.67-.22c-.22,0-.34-.22-.67-.56l-.56-.56c-.11,.11-.34,.34-.45,.56-.11,.34-.34,.67-.56,1.12,0,.11-.11,.22-.11,.34-.11,.11-.11,.22-.22,.45,0,.22-.11,.56-.11,.78-.11,.22-.22,.45-.34,.78s-.22,.67-.34,1.12c0,.11-.11,.34-.22,.67-.11,.34-.22,.56-.22,.67s0,.22-.11,.34c0,.11-.11,.34-.22,.56s-.34,.45-.45,.67c-.11,.11-.22,.22-.34,.22-.22,0-.34-.11-.45-.34-.11-.22-.11-.45-.11-.9,0-.56,0-1.23,.11-1.9s.22-1.46,.34-2.24c0-.22,.11-.45,.11-.67s.11-.45,.11-.78c.11-.34,.11-.56,.11-.78v-.67c-.11,0-.22,.11-.34,.22-.11,.11-.34,.34-.56,.67,0-.11-.11-.22-.11-.34,0,.11-.11-.11-.22-.34Z"/><path class="cls-1" d="M140.99,17.3c.11-.22,.34-.45,.56-.67s.45-.56,.78-.9q0-.11,.11-.22c0-.11,.11-.22,.11-.34,.34-.56,.67-1.12,1.01-1.57,.34-.45,.56-1.01,.78-1.46,.11-.11,.11-.22,.22-.45,.11-.22,.11-.34,.22-.56,.11-.11,.22-.34,.34-.34,.11-.11,.22-.11,.22-.11,.11,0,.22,.11,.34,.22,.11,.11,.11,.34,.11,.56,0,.11-.11,.56-.34,1.34-.22,.78-.56,1.79-1.01,3.14-.11,.34-.22,.78-.45,1.34s-.34,1.34-.56,2.24c0,.11,0,.34-.11,.45s-.11,.34-.11,.56c-.11,.45-.22,.78-.22,1.01s-.11,.45-.11,.56v.11s.11-.11,.11-.22,.11-.22,.11-.45,.11-.34,.11-.45v-.34c.11-.45,.34-.9,.56-1.57s.45-1.34,.67-2.13l.34-.67c.11-.34,.34-.67,.45-1.01,.11-.11,.34-.22,.45-.34,.11-.11,.22-.11,.34-.11,.22,0,.34,0,.56,.11,.11,.11,.34,.22,.45,.45,0,0,.11,.22,.22,.34s.22,.45,.34,.78c.11,.22,.22,.34,.22,.45l.22,.22,.45,.9s-.11,0-.22,.11c-.11,0-.34,.11-.67,.11l-.67-.22c-.22,0-.34-.22-.67-.56l-.56-.56c-.11,.11-.34,.34-.45,.56-.11,.34-.34,.67-.56,1.12,0,.11-.11,.22-.11,.34-.11,.11-.11,.22-.22,.45,0,.22-.11,.56-.11,.78-.11,.22-.22,.45-.34,.78s-.22,.67-.34,1.12c0,.11-.11,.34-.22,.67-.11,.34-.22,.56-.22,.67s0,.22-.11,.34-.11,.34-.22,.56c-.11,.22-.34,.45-.45,.67-.11,.11-.22,.22-.34,.22-.22,0-.34-.11-.45-.34-.11-.22-.11-.45-.11-.9,0-.56,0-1.23,.11-1.9s.22-1.46,.34-2.24c0-.22,.11-.45,.11-.67s.11-.45,.11-.78c.11-.34,.11-.56,.11-.78v-.67c-.11,0-.22,.11-.34,.22s-.34,.34-.56,.67c0-.11-.11-.22-.11-.34s-.11-.11-.22-.34Z"/><path class="cls-1" d="M148.16,17.3c.11-.11,.22-.34,.34-.45,.45-.45,.9-.78,1.23-1.23,.34-.34,.56-.78,.67-1.12l-.11-.45c.11-.22,.34-.34,.67-.56s.67-.34,.9-.34,.45,.11,.56,.22l.45,.45c.11,0,.11,.11,.11,.11,.22,.22,.45,.45,.67,.9,.11,.34,.22,.78,.22,1.34,0,.22-.11,.67-.34,1.23s-.34,.9-.34,1.12v.11h.11c.11,0,.22,0,.34-.11s.22-.22,.45-.34c.34-.34,.56-.56,.67-.56s.22-.11,.22-.22c0,.11,.11,.34,.22,.45,.11,.11,.11,.34,.22,.56-.11,0-.11,.11-.22,.22-.11,.11-.22,.11-.34,.22-.22,.22-.56,.34-.9,.67-.34,.22-.78,.56-1.34,.9-.11,.11-.34,.11-.45,.22-.34,0-.56,0-.67-.11s-.22-.22-.22-.45v-.22c0-.11,.11-.22,.11-.34s.11-.22,.11-.22c0-.11,.11-.22,.11-.34,.11-.45,.22-.78,.34-1.23s.11-.67,.11-1.01-.11-.67-.22-.78c-.11-.22-.34-.34-.56-.34-.11,.11-.34,.22-.45,.34l-.56,.56c-.22,.22-.34,.45-.56,.56-.11,.11-.34,.22-.34,.34-.11,.11-.11,.22-.34,.34-.11,.11-.34,.22-.56,.45,0,0,0,.11-.11,.11s-.11,.11-.11,.22c0-.11-.11-.34-.22-.45,.22-.45,.22-.56,.11-.78Z"/><path class="cls-1" d="M154.99,17.3c.11-.11,.22-.34,.34-.45l.45-.45c0-.11,0-.22,.11-.45v-.45c0-.11,0-.22,.11-.34,0-.11,.11-.22,.11-.45,.11-.11,.11-.34,.22-.56,.11-.22,.22-.45,.45-.78,.11-.11,.34-.34,.45-.56,.11-.22,.34-.34,.45-.56l.22-.22c.11,0,.22-.11,.22-.22,.11,0,.22,0,.22-.11s.22,0,.34,0h.45c.11,0,.22,.11,.22,.22,0,0,.11,.11,.11,.22s.11,.22,.11,.45c0,.11,0,.34,.11,.45h0s-.11,.22-.11,.34l-.11,.34c-.11,.34-.34,.67-.67,1.12s-.78,.9-1.34,1.46c0,0-.11,.11-.11,.22v.22c0,.11,0,.22,.11,.34,0,.11,.11,.22,.22,.22,0,0,.11,.11,.22,.11s.22,.11,.45,.11,.56-.11,.78-.11,.45-.11,.56-.22c0,0,.11,0,.11-.11,.11,0,.11-.11,.22-.11,.11,.22,.22,.34,.22,.56,.11,.11,.11,.34,.11,.45-.34,.34-.78,.67-1.12,.9s-.56,.34-.9,.34c-.11,.11-.22,.11-.34,.11h-.45c-.22,0-.45,0-.67-.11s-.34-.22-.45-.34c-.11-.11-.11-.22-.22-.34-.11-.11-.11-.34-.22-.45-.11-.11-.11-.22-.22-.34,0-.11-.11-.11-.22-.11,0,0-.11,0-.22,.11-.11,0-.11,.11-.22,.22,0-.11-.11-.22-.11-.34s.11-.11,0-.34Zm3.36-3.36c-.11,0-.34,.22-.56,.56-.22,.45-.34,.67-.34,.9v.11h.11q.11,0,.22-.11t.11-.22l.22-.22,.22-.22c.11-.11,.11-.22,.22-.34,0-.11,.11-.22,.11-.34-.22,.11-.22,0-.34-.11,0,.11,0,0,0,0Z"/><path class="cls-1" d="M160.14,17.3l.11-.11c0-.11,.11-.11,.11-.22,.11,0,.11-.11,.22-.22l.34-.34c.11-.11,.22-.34,.45-.56s.45-.45,.67-.78l.45-.45c.11-.22,.34-.45,.56-.67s.45-.45,.67-.56c.22-.11,.45-.11,.67-.11s.45,.11,.56,.22,.22,.34,.22,.67c0,.11-.11,.45-.22,.9-.11,.45-.34,1.01-.56,1.79-.11,.11-.11,.22-.22,.34,0,.11-.11,.22-.11,.22v.11s0,.11,.11,.11c0,0,.11,0,.11-.11l.11-.11c0-.11,.11-.22,.22-.34,.11-.11,.22-.22,.45-.34,.11-.11,.11-.22,.22-.34l.34-.34,.11-.11c0-.11,.11-.11,.11-.22,.11-.11,.22-.22,.34-.22s.22-.22,.45-.34c.22-.11,.34-.22,.45-.22s.22-.11,.34-.11c.22,0,.45,0,.56,.11s.34,.22,.45,.45c.11,.45,.22,.78,.34,1.23,.11,.22,.11,.34,.22,.45,.11,.11,.22,.11,.34,.11h.22c.11,0,.11-.11,.22-.11l.45,.9-.34,.34-.34,.34c-.11,.11-.34,.22-.45,.34-.11,.11-.22,.11-.45,.11-.11,0-.34,0-.45-.11l-.34-.34s-.11-.11-.22-.34-.22-.34-.34-.56l-.34-.34c-.11-.11-.22-.34-.45-.56h-.11c-.11,0-.22,.11-.34,.22s-.22,.22-.45,.34c-.34,.22-.56,.45-.67,.56s-.22,.11-.22,.22c-.11,.11-.22,.34-.45,.67l-.9,.9-.22,.22-.22,.22c-.11,.11-.22,.11-.34,.11h-.34c-.22,0-.45-.11-.45-.34s0-.34-.11-.56c.11-.34,.22-.67,.34-1.12s.34-.9,.45-1.57v-.11q0-.11,.11-.22c0-.11,.11-.11,.11-.22v-.34h-.11q-.11,0-.22,.11c-.11,.11-.22,.22-.45,.34l-.45,.45-.22,.22c-.11,0-.11,.11-.22,.22l-.34,.34s0,.11-.11,.11-.11,.11-.11,.22c0-.11-.11-.22-.11-.34s-.11,0-.22-.22Z"/><path class="cls-1" d="M170.33,16.85l.9-.67,.11-.11s.11-.11,.11-.22,.11-.11,.22-.22c.11-.11,.22-.11,.22-.11,0-.11,.11-.11,.22-.22l.34-.34c.11,0,.22-.11,.34-.22l.34-.34c.67-.56,1.12-1.01,1.68-1.34s.9-.45,1.23-.45c.22,0,.34,0,.45,.11,.11,.11,.11,.22,.11,.34s0,.22-.11,.34c0,.11-.11,.22-.22,.22-.22,.11-.34,.22-.56,.45-.11,.11-.22,.34-.45,.45-.11,.11-.34,.34-.56,.45-.11,.11-.11,.22-.22,.22l-.22,.22-.34,.34c-.11,.11-.22,.34-.45,.56l-.9,.9s-.11,.11-.22,.34-.34,.45-.45,.67l.11,.11c.11,0,.34-.11,.45-.22,.11-.11,.34-.22,.56-.45,.22-.22,.45-.34,.56-.56s.22-.22,.34-.22c0,0,.11,0,.11-.11s.11-.11,.11-.11c.34-.34,.56-.67,.9-.78,.22-.22,.56-.22,.78-.22,.11,0,.22,0,.34,.22,.11,.11,.11,.34,.11,.56v1.01c0,.22,0,.45,.22,.56s.34,.22,.45,.22h.22c.11,0,.11-.11,.22-.11,0-.11,.11-.11,.11-.22s.11-.11,.11-.11c0,0,.11,0,.11-.11l.11-.11c.11,.22,.22,.34,.22,.56,.11,.11,.11,.34,.11,.45l-.45,.45-.45,.45c-.22,.11-.45,.22-.56,.34s-.34,.11-.56,.11c-.45,0-.78-.11-1.01-.34-.22-.22-.34-.67-.45-1.12v-.22q0-.11-.11-.22l-.11,.11-.11,.11c-.11,.11-.22,.11-.34,.22s-.34,.22-.45,.34l-.56,.56c-.11,.11-.34,.22-.34,.34-.11,.11-.34,.22-.45,.34-.22,.11-.34,.22-.56,.34-.11,.11-.22,.11-.34,.22s-.22,.11-.22,.11c-.34,0-.56-.11-.78-.22-.11-.11-.22-.45-.22-.78,0-.22,0-.34,.11-.56,.11-.11,.22-.34,.34-.45v-.34s0-.11-.11-.11c0-.11-.11-.22-.11-.34s-.11-.22-.22-.34l.11-.11c0-.34,.11-.45,.11-.56Z"/><path class="cls-1" d="M177.94,17.3l.11-.11c0-.11,.11-.11,.11-.22,.11,0,.11-.11,.22-.22l.34-.34c.11-.11,.22-.34,.45-.56s.45-.45,.67-.78l.45-.45c.11-.22,.34-.45,.56-.67s.45-.45,.67-.56c.22-.11,.45-.11,.67-.11s.45,.11,.56,.22,.22,.34,.22,.67c0,.11-.11,.45-.22,.9-.11,.45-.34,1.01-.56,1.79-.11,.11-.11,.22-.22,.34,0,.11-.11,.22-.11,.22v.11s0,.11,.11,.11c0,0,.11,0,.11-.11l.11-.11c0-.11,.11-.22,.22-.34,.11-.11,.22-.22,.45-.34,.11-.11,.11-.22,.22-.34l.34-.34,.11-.11c0-.11,.11-.11,.11-.22,.11-.11,.22-.22,.34-.22s.22-.22,.45-.34c.22-.11,.34-.22,.45-.22s.22-.11,.34-.11c.22,0,.45,0,.56,.11s.34,.22,.45,.45c.11,.45,.22,.78,.34,1.23,.11,.22,.11,.34,.22,.45,.11,.11,.22,.11,.34,.11h.22c.11,0,.11-.11,.22-.11l.45,.9-.34,.34-.34,.34c-.11,.11-.34,.22-.45,.34-.11,.11-.22,.11-.45,.11-.11,0-.34,0-.45-.11l-.34-.34s-.11-.11-.22-.34-.22-.34-.34-.56l-.34-.34c-.11-.11-.22-.34-.45-.56h-.11c-.11,0-.22,.11-.34,.22s-.22,.22-.45,.34c-.34,.22-.56,.45-.67,.56s-.22,.11-.22,.22c-.11,.11-.22,.34-.45,.67l-.9,.9-.22,.22-.22,.22c-.11,.11-.22,.11-.34,.11h-.34c-.22,0-.45-.11-.45-.34s0-.34-.11-.56c.11-.34,.22-.67,.34-1.12s.34-.9,.45-1.57v-.11q0-.11,.11-.22c0-.11,.11-.11,.11-.22v-.34h-.11q-.11,0-.22,.11c-.11,.11-.22,.22-.45,.34l-.45,.45-.22,.22c-.11,0-.11,.11-.22,.22l-.34,.34s0,.11-.11,.11-.11,.11-.11,.22c0-.11-.11-.22-.11-.34s-.11,0-.22-.22Z"/><path class="cls-1" d="M187.8,17.3h0c.11-.11,.11-.22,.22-.34,.11-.11,.11-.22,.22-.34,.45-.45,1.01-1.01,1.46-1.57,.45-.67,.9-1.34,1.34-2.13,0-.11,.11-.22,.22-.34s.11-.22,.22-.45v-.11h-2.24c-.11,0-.11-.11-.22-.11s-.11,0-.22-.11c-.11,0-.11-.11-.22-.11l-.11-.11c0-.45,0-.78,.11-1.01s.22-.34,.45-.34h.56c.22,0,.34,0,.45,.11,.11,0,.22,0,.34-.11h.78c.11,0,.22,0,.22-.11,.11,0,.22,0,.34-.11l.34,.11c.22,0,.45-.34,.78-1.01,.22-.67,.56-1.01,.9-1.01,.11,0,.34,0,.34,.11,.11,.11,.11,.22,.11,.45,0,.11,0,.34-.11,.67-.11,.22-.11,.45-.11,.56v.11l.11,.11,.11,.11v1.23c0,.22-.11,.34-.22,.34l-.67,.11v.22c0,.11,0,.22-.11,.34-.11,.34-.22,.78-.45,1.34-.11,.56-.34,1.12-.45,1.9-.11,.56-.22,1.01-.22,1.46-.11,.34-.11,.56-.11,.67v.22l.11,.11s.22-.11,.45-.34,.56-.45,1.12-.9l.45,.9q-.11,.11-.34,.22c-.22,.11-.22,.22-.45,.34l-.22,.22-.34,.34c-.11,.11-.22,.22-.34,.45-.11,.11-.22,.22-.34,.45-.11,.22-.34,.34-.45,.34-.11,.11-.34,.11-.45,.11-.34,0-.56-.11-.67-.22s-.22-.45-.22-.78v-1.01c0-.22,.11-.56,.11-.67,0,0,0-.11,.11-.11v-.22c0-.11,0-.22,.11-.45,0-.22,.11-.56,.11-.78,.11-.11,.11-.34,.22-.56,0,0,0-.11-.11-.11l-.11,.11c-.11,.11-.22,.34-.45,.56-.11,.22-.34,.34-.56,.56-.34,.34-.67,.67-1.12,1.01l-.11,.11-.22,.22c0-.11-.11-.22-.11-.34s-.11-.22-.11-.45c-.11,.34-.11,.22-.22,.11,0,.11,0,0,0,0Z"/><path class="cls-1" d="M193.51,17.3h0c.11-.11,.11-.22,.22-.34,.11-.11,.22-.22,.45-.34,.22-.11,.45-.22,.56-.34,.11-.11,.22-.11,.22-.22q.11-.11,.11-.22c.11,0,.22-.11,.22-.22l.34-.34,.11-.11s.11-.11,.11-.22c.11-.11,.22-.11,.34-.22s.22-.22,.45-.34l.56-.56,.67-.67c.11,0,.22-.11,.22-.11h.22c.34,0,.56,.11,.67,.22s.22,.34,.22,.67v.34c0,.11,0,.34-.11,.56-.11,.67-.11,1.12-.22,1.23,0,.11-.22,.67-.45,1.46,0,.11-.11,.34-.22,.45-.11,.22-.11,.45-.22,.67l.11,.11s.11,0,.22-.11c.11-.11,.34-.22,.45-.45,.22-.22,.45-.34,.56-.56l.22-.22c.11,.22,.11,.34,.22,.56,.11,.11,.11,.34,.22,.45-.11,0-.22,.11-.22,.22s.22,0,.11,0c-.11,.11-.34,.22-.45,.34s-.45,.22-.67,.45c-.11,.11-.22,.22-.45,.34s-.34,.34-.56,.45h-.22c-.11,.11-.22,.22-.22,.34q-.11,.11-.22,.11c-.11,0-.22,.11-.34,.11s-.22,.11-.34,.11-.11-.11-.11-.11v-.22c-.11-.22-.22-.45-.22-.67-.11-.22-.11-.56-.11-.78v-.34c0-.22-.11-.34-.11-.34,0-.22,.11-.34,.22-.56s.34-.22,.56-.22c.11,0,.22,0,.22,.11s.11,.11,.11,.11c0,0,.11-.11,.11-.34s.11-.45,.11-.78,.11-.56,.11-.78v-.56q0-.11-.11-.22s-.11-.11-.22-.11-.34,.22-.9,.67c-.45,.45-1.12,1.01-2.02,1.79,0,0-.11,.11-.11,.22s-.11,.11-.22,.22c0-.11-.11-.22-.11-.34s0-.11-.11-.34Z"/></g><g><path class="cls-3" d="M10.88,.17c-.22-.22-.67-.22-1.01,0C5.17,4.53,1.92,10.25,1.92,13.6c0,5.49,3.47,8.73,8.4,8.73s8.4-3.25,8.4-8.73c.11-3.47-3.25-9.07-7.84-13.44Zm-.45,18.7c-2.46,0-4.25-1.68-4.25-4.03,0-.56,.22-2.46,3.7-6.27,.22-.34,.78-.34,1.01,0,3.47,3.81,3.7,5.71,3.7,6.27,0,2.35-1.68,4.03-4.14,4.03Z"/><path class="cls-5" d="M.69,3.97C.35,3.97,.02,4.31,.02,4.65c-.22,6.38,1.57,12.76,3.92,15.12,3.92,3.92,8.62,3.7,12.2,.22s3.7-8.29-.22-12.2C13.34,5.54,7.07,3.86,.69,3.97Zm12.88,13.66c-1.79,1.79-4.14,1.79-5.82,.11-.34-.34-1.57-1.79-1.79-7.05,0-.45,.34-.78,.78-.78,5.15,.22,6.61,1.46,7.05,1.79,1.57,1.79,1.57,4.14-.22,5.93Z"/><path class="cls-4" d="M20.4,4.65c0-.34-.34-.67-.67-.67-6.38-.22-12.76,1.57-15.12,3.92-3.92,3.92-3.7,8.62-.22,12.2s8.29,3.7,12.2-.22c2.24-2.46,3.92-8.85,3.81-15.23ZM6.74,17.64c-1.79-1.79-1.79-4.14-.11-5.82,.34-.34,1.79-1.57,7.05-1.79,.45,0,.78,.34,.78,.78-.22,5.15-1.46,6.61-1.79,7.05-1.79,1.57-4.14,1.46-5.93-.22Z"/></g></svg>