<?xml version="1.0" encoding="utf-8"?>
<!-- Generator: Adobe Illustrator 18.1.0, SVG Export Plug-In . SVG Version: 6.00 Build 0)  -->
<svg version="1.1" id="Calque_1" xmlns="http://www.w3.org/2000/svg" xmlns:xlink="http://www.w3.org/1999/xlink" x="0px" y="0px"
	 viewBox="0 150 1920 300" enable-background="new 0 150 1920 300" xml:space="preserve">
<rect y="150" fill="#373A3C" width="1920" height="300"/>
<polygon fill="#394F91" points="1920,450 720,450 1320,300 1920,150 "/>
<polygon fill="#5F81CE" points="1200,451.2 0,451.2 0,151.2 600,301.2 "/>
<rect x="735.1" y="456.3" fill="none" width="725.9" height="174.7"/>
<g>
	<g>
		<defs>
			<path id="SVGID_7_" d="M963.7,333.3c68.2,0,123.6-29.1,123.6-65c0-35.9-55.3-65-123.6-65s-123.6,29.1-123.6,65
				C840.1,304.2,895.5,333.3,963.7,333.3L963.7,333.3z"/>
		</defs>
		<clipPath id="SVGID_1_">
			<use xlink:href="#SVGID_7_"  overflow="visible"/>
		</clipPath>
		<g clip-path="url(#SVGID_1_)">
			<defs>
				<rect id="SVGID_9_" x="840.1" y="203.3" width="247.1" height="130"/>
			</defs>
			<clipPath id="SVGID_2_">
				<use xlink:href="#SVGID_9_"  overflow="visible"/>
			</clipPath>
			<g transform="matrix(1 0 0 1 4.169255e-005 4.350131e-006)" clip-path="url(#SVGID_2_)">
				
					<image overflow="visible" width="364" height="193" xlink:href="9771467C.png"  transform="matrix(0.6892 0 0 -0.6892 838.5306 335.1009)">
				</image>
			</g>
		</g>
		<g clip-path="url(#SVGID_1_)">
			<defs>
				<rect id="SVGID_11_" x="840.1" y="203.3" width="247.1" height="130"/>
			</defs>
			<clipPath id="SVGID_3_">
				<use xlink:href="#SVGID_11_"  overflow="visible"/>
			</clipPath>
			<g transform="matrix(1 0 0 1 4.169255e-005 4.350131e-006)" clip-path="url(#SVGID_3_)">
				
					<image overflow="visible" width="364" height="193" xlink:href="97714673.png"  transform="matrix(0.6892 0 0 -0.6892 838.5306 335.1009)">
				</image>
			</g>
		</g>
	</g>
	<path fill-rule="evenodd" clip-rule="evenodd" fill="#6481B9" d="M963.7,328.5c65.6,0,118.7-26.9,118.7-60.2
		c0-33.2-53.2-60.2-118.7-60.2S845,235.1,845,268.3C845,301.5,898.1,328.5,963.7,328.5L963.7,328.5z"/>
	<path fill-rule="evenodd" clip-rule="evenodd" fill="#FFFFFF" d="M987.8,287.7l5.9-30.3c1.3-6.8,0.2-11.9-3.3-15.2
		c-3.4-3.1-9.2-4.6-17.6-4.6h-10.2l2.9-15c0.1-0.6,0-1.2-0.4-1.6c-0.4-0.4-0.9-0.7-1.5-0.7h-14.1c-0.9,0-1.7,0.7-1.9,1.6l-6.3,32.2
		c-0.6-3.6-2-6.7-4.2-9.3c-4.1-4.7-10.7-7.1-19.4-7.1h-27.3c-0.9,0-1.7,0.7-1.9,1.6l-12.7,65.1c-0.1,0.6,0,1.2,0.4,1.6
		c0.4,0.4,0.9,0.7,1.5,0.7h14.2c0.9,0,1.7-0.7,1.9-1.6l3.1-15.8h10.6c5.5,0,10.2-0.6,13.8-1.8c3.7-1.2,7.1-3.3,10.2-6.1
		c2.4-2.2,4.4-4.7,6-7.4l-2.5,13c-0.1,0.6,0,1.2,0.4,1.6c0.4,0.4,0.9,0.7,1.5,0.7h14.1c0.9,0,1.7-0.7,1.9-1.6l6.9-35.8h9.7
		c4.1,0,5.3,0.8,5.6,1.2c0.3,0.3,0.9,1.5,0.2,5l-5.6,28.8c-0.1,0.6,0,1.2,0.4,1.6c0.4,0.4,0.9,0.7,1.5,0.7h14.3
		C986.8,289.3,987.6,288.6,987.8,287.7L987.8,287.7z M922.5,262.7c-0.9,4.5-2.6,7.8-5,9.6c-2.4,1.9-6.3,2.8-11.6,2.8h-6.3l4.5-23.4
		h8.1c6,0,8.4,1.3,9.3,2.3C923,255.6,923.3,258.6,922.5,262.7L922.5,262.7z"/>
	<path fill-rule="evenodd" clip-rule="evenodd" fill="#FFFFFF" d="M1047.1,244.7c-4.1-4.7-10.7-7.1-19.4-7.1h-27.3
		c-0.9,0-1.7,0.7-1.9,1.6l-12.7,65.1c-0.1,0.6,0,1.2,0.4,1.6c0.4,0.4,0.9,0.7,1.5,0.7h14.2c0.9,0,1.7-0.7,1.9-1.6l3.1-15.8h10.6
		c5.5,0,10.2-0.6,13.8-1.8c3.7-1.2,7.1-3.3,10.2-6.1c2.5-2.3,4.6-4.9,6.2-7.7c1.6-2.8,2.7-5.9,3.3-9.3
		C1052.5,256.1,1051.2,249.5,1047.1,244.7L1047.1,244.7z M1033.3,262.7c-0.9,4.5-2.6,7.8-5,9.6c-2.4,1.9-6.3,2.8-11.6,2.8h-6.3
		l4.5-23.4h8.1c6,0,8.4,1.3,9.3,2.3C1033.8,255.6,1034.1,258.6,1033.3,262.7L1033.3,262.7z"/>
	<path fill-rule="evenodd" clip-rule="evenodd" fill="#231F20" d="M912.3,249.8c5.4,0,9,1,10.8,3c1.8,2,2.2,5.4,1.3,10.2
		c-1,5-2.9,8.6-5.7,10.8c-2.8,2.2-7.1,3.2-12.8,3.2h-8.6l5.3-27.3H912.3L912.3,249.8z M877.8,304.7h14.2l3.4-17.3h12.2
		c5.4,0,9.8-0.6,13.2-1.7c3.5-1.1,6.6-3,9.4-5.7c2.4-2.2,4.3-4.6,5.8-7.2c1.5-2.6,2.5-5.5,3.1-8.7c1.5-7.7,0.4-13.7-3.4-18
		c-3.8-4.3-9.8-6.5-18-6.5h-27.3L877.8,304.7L877.8,304.7z"/>
	<path fill-rule="evenodd" clip-rule="evenodd" fill="#231F20" d="M949.5,222.2h14.1l-3.4,17.3h12.5c7.9,0,13.3,1.4,16.3,4.1
		c3,2.8,3.9,7.2,2.7,13.4l-5.9,30.3h-14.3l5.6-28.8c0.6-3.3,0.4-5.5-0.7-6.7c-1.1-1.2-3.5-1.8-7.1-1.8h-11.3l-7.3,37.3h-14.1
		L949.5,222.2L949.5,222.2z"/>
	<path fill-rule="evenodd" clip-rule="evenodd" fill="#231F20" d="M1023.1,249.8c5.4,0,9,1,10.8,3c1.8,2,2.2,5.4,1.3,10.2
		c-1,5-2.9,8.6-5.7,10.8c-2.8,2.2-7.1,3.2-12.8,3.2h-8.6l5.3-27.3H1023.1L1023.1,249.8z M988.5,304.7h14.2l3.4-17.3h12.2
		c5.4,0,9.8-0.6,13.2-1.7c3.5-1.1,6.6-3,9.4-5.7c2.4-2.2,4.3-4.6,5.8-7.2c1.5-2.6,2.5-5.5,3.1-8.7c1.5-7.7,0.4-13.7-3.4-18
		c-3.8-4.3-9.8-6.5-18-6.5h-27.3L988.5,304.7L988.5,304.7z"/>
</g>
</svg>
