<?xml version="1.0" encoding="utf-8"?>
<!-- Generator: Adobe Illustrator 18.1.0, SVG Export Plug-In . SVG Version: 6.00 Build 0)  -->
<svg version="1.1" id="Calque_1" xmlns="http://www.w3.org/2000/svg" xmlns:xlink="http://www.w3.org/1999/xlink" x="0px" y="0px"
	 viewBox="0 150 1920 300" enable-background="new 0 150 1920 300" xml:space="preserve">
<rect y="150" fill="#373A3C" width="1920" height="300"/>
<polygon fill="#4AA7D5" points="1920,450 720,450 1320,300 1920,150 "/>
<polygon fill="#4FCCFC" points="1200,451.2 0,451.2 0,151.2 600,301.2 "/>
<g>
	<path fill="#F7F7F7" d="M1035,271.3c0,41.4-33.6,75-75,75c-41.4,0-75-33.6-75-75s33.6-75,75-75C1001.5,196.3,1035,229.9,1035,271.3
		z"/>
	<path fill="#373A3C" d="M992.8,224c-7.6,0.3-14.3,4.4-19.2,10.2c-5.5,6.4-9.1,13.9-11.7,21.7c-4.7-3.8-8.3-8.9-15.8-11
		c-5.8-1.7-11.9-1-17.6,3.2c-2.7,2-4.5,5-5.3,7.8c-2.3,7.4,2.3,13.9,4.5,16.2l4.6,5c1,1,3.3,3.5,2.1,7.1c-1.2,3.9-5.9,6.5-10.8,5
		c-2.2-0.7-5.3-2.3-4.6-4.6c0.3-0.9,1-1.6,1.3-2.4c0.3-0.7,0.5-1.2,0.6-1.5c0.9-2.9-0.3-6.7-3.5-7.6c-2.9-0.9-5.9-0.2-7,3.5
		c-1.3,4.2,0.7,11.9,11.6,15.3c12.8,3.9,23.5-3,25-12.1c1-5.7-1.6-9.9-6.3-15.3l-3.8-4.2c-2.3-2.3-3.1-6.3-0.7-9.3
		c2-2.5,4.9-3.7,9.6-2.3c6.9,1.9,10,6.7,15.1,10.5c-2.1,6.9-3.5,13.9-4.8,20.2l-0.8,4.6c-3.7,19.2-6.5,29.7-13.7,35.8
		c-1.4,1-3.6,2.6-6.7,2.7c-1.6,0.1-2.2-1.1-2.2-1.6c-0.1-1.2,0.9-1.7,1.6-2.2c1-0.5,2.4-1.4,2.3-4.2c-0.1-3.3-2.9-6.2-6.8-6.1
		c-3,0.1-7.5,2.9-7.4,8c0.2,5.3,5.1,9.3,12.6,9c4-0.1,12.9-1.8,21.7-12.2c10.2-11.9,13-25.6,15.2-35.7l2.4-13.2
		c1.3,0.1,2.7,0.3,4.3,0.3c12.7,0.3,19-6.3,19.2-11.1c0.1-2.9-1.9-5.7-4.6-5.7c-2,0.1-4.4,1.4-5,4.1c-0.6,2.7,4,5.1,0.5,7.4
		c-2.5,1.6-7.2,2.8-13.6,1.9l1.2-6.5c2.4-12.3,5.3-27.5,16.6-27.9c0.8-0.1,3.8,0.1,3.9,2c0,0.7-0.1,0.8-0.9,2.3
		c-0.8,1.2-1.1,2.2-1,3.3c0.1,3.1,2.5,5.2,6,5.1c4.6-0.1,6-4.7,5.9-7C1006.2,227.3,1000.4,223.8,992.8,224z"/>
</g>
</svg>
