<?xml version="1.0" encoding="utf-8"?>
<!-- Generator: Adobe Illustrator 18.1.0, SVG Export Plug-In . SVG Version: 6.00 Build 0)  -->
<svg version="1.1" id="Calque_1" xmlns="http://www.w3.org/2000/svg" xmlns:xlink="http://www.w3.org/1999/xlink" x="0px" y="0px"
	 viewBox="0 0 1920 301.2" enable-background="new 0 0 1920 301.2" xml:space="preserve">
<rect x="-1.1" fill="#373A3C" width="1920" height="300"/>
<polygon fill="#394F91" points="1918.9,300 718.9,300 1318.9,150 1918.9,0 "/>
<polygon fill="#5F81CE" points="1198.9,301.2 -1.1,301.2 -1.1,1.2 598.9,151.2 "/>
<g>
	<path fill="#F7F7F7" d="M1031.8,114.9c0,40.8-33.2,74-74,74s-74-33.2-74-74s33.2-74,74-74C998.7,40.9,1031.8,74.1,1031.8,114.9z"/>
</g>
<g>
	<path fill="#464342" d="M893.5,114.9c0,25.4,14.8,47.5,36.3,57.9l-30.7-84.1C895.5,96.7,893.5,105.6,893.5,114.9z M1001.2,111.6
		c0-8-2.9-13.4-5.3-17.7c-3.3-5.3-6.3-9.8-6.3-15.1c0-5.9,4.5-11.4,10.8-11.4c0.3,0,0.6,0.1,0.8,0.1c-11.5-10.5-26.7-17-43.5-17
		c-22.5,0-42.3,11.5-53.7,29c1.5,0.1,2.9,0.1,4.2,0.1c6.7,0,17.2-0.8,17.2-0.8c3.5-0.2,3.8,4.9,0.4,5.3c0,0-3.5,0.4-7.4,0.6
		l23.4,69.7l14.1-42.2l-10-27.5c-3.5-0.2-6.7-0.6-6.7-0.6c-3.5-0.2-3.1-5.5,0.4-5.3c0,0,10.6,0.8,17,0.8c6.7,0,17.2-0.8,17.2-0.8
		c3.5-0.2,3.8,4.9,0.4,5.3c0,0-3.5,0.4-7.4,0.6l23.2,69.1l6.4-21.5C999.6,124.1,1001.2,117.2,1001.2,111.6z M959,120.5l-19.3,56.1
		c5.7,1.7,11.9,2.6,18.2,2.6c7.5,0,14.7-1.3,21.4-3.7c-0.2-0.3-0.3-0.6-0.5-0.9L959,120.5z M1014.3,84.1c0.3,2,0.5,4.2,0.5,6.6
		c0,6.5-1.2,13.9-4.9,23l-19.6,56.8c19.1-11.2,32-31.9,32-55.6C1022.2,103.7,1019.3,93.2,1014.3,84.1z"/>
	<g>
		<path fill="#464342" d="M882.8,114.9c0,41.3,33.7,75,75,75s75-33.7,75-75s-33.7-75-75-75C916.4,39.9,882.8,73.6,882.8,114.9z
			 M886.2,114.9c0-39.5,32.1-71.5,71.5-71.5c39.5,0,71.5,32.1,71.5,71.5s-32.1,71.5-71.5,71.5S886.2,154.4,886.2,114.9z"/>
	</g>
</g>
</svg>
